<?xml version="1.0" standalone="no"?>
<!DOCTYPE svg PUBLIC "-//W3C//DTD SVG 20010904//EN"
 "http://www.w3.org/TR/2001/REC-SVG-20010904/DTD/svg10.dtd">
<svg version="1.0" xmlns="http://www.w3.org/2000/svg"
 width="340.000000pt" height="340.000000pt" viewBox="0 0 340.000000 340.000000"
 preserveAspectRatio="xMidYMid meet">
<metadata>
Created by potrace 1.16, written by Peter Selinger 2001-2019
</metadata>
<g transform="translate(0.000000,340.000000) scale(0.100000,-0.100000)"
fill="#000000" stroke="none">
<path d="M387 3353 c-4 -3 -7 -26 -7 -49 l0 -43 -47 -3 -48 -3 -3 -52 -3 -53
-50 0 -49 0 0 -350 0 -350 49 0 50 0 3 -52 3 -53 47 -3 47 -3 3 -47 3 -47 253
-3 252 -2 0 -50 0 -50 50 0 50 0 0 -50 0 -50 50 0 50 0 0 -50 0 -50 50 0 50 0
0 -50 0 -50 55 0 56 0 -3 200 -3 200 860 2 860 3 3 48 3 47 50 0 49 0 0 55 0
55 50 0 50 0 0 350 0 350 -49 0 -50 0 -3 53 -3 52 -47 3 -47 3 -3 47 -3 47
-1311 3 c-721 1 -1314 -1 -1317 -5z m2621 -103 c8 0 12 -17 12 -50 l0 -50 50
0 50 0 0 -350 0 -350 -49 0 -50 0 -3 -52 -3 -53 -912 -3 -913 -2 0 -150 0
-150 -50 0 -50 0 0 50 0 50 -50 0 -50 0 0 50 0 50 -50 0 -50 0 0 50 0 50 -252
2 -253 3 -3 53 -3 52 -50 0 -49 0 0 350 0 350 50 0 50 0 0 49 c0 38 4 50 17
53 12 2 1608 1 2611 -2z"/>
<path d="M485 2800 l0 -250 53 0 52 0 0 150 0 150 50 0 50 0 0 -50 0 -50 50 0
50 0 0 50 0 50 50 0 50 0 0 -150 0 -150 50 0 50 0 0 250 0 250 -50 0 -50 0 0
-50 0 -50 -50 0 -50 0 0 -50 0 -50 -50 0 -50 0 0 50 0 50 -50 0 -50 0 0 50 0
50 -52 0 -53 0 0 -250z"/>
<path d="M1090 2800 l0 -250 205 0 205 0 0 50 0 50 -155 0 -155 0 0 50 0 50
105 0 105 0 0 50 0 50 -105 0 -105 0 0 50 0 50 155 0 155 0 0 50 0 50 -205 0
-205 0 0 -250z"/>
<path d="M1700 3000 l0 -50 -50 0 -50 0 0 -150 0 -150 50 0 50 0 0 -50 0 -50
150 0 150 0 0 50 0 50 55 0 55 0 0 150 0 150 -55 0 -55 0 0 50 0 50 -150 0
-150 0 0 -50z m300 -200 l0 -150 -150 0 -150 0 0 150 0 150 150 0 150 0 0
-150z"/>
<path d="M2210 2850 l0 -200 50 0 50 0 0 -50 0 -50 50 0 50 0 0 50 0 50 50 0
50 0 0 -50 0 -50 50 0 50 0 0 50 0 50 50 0 50 0 0 200 0 200 -50 0 -50 0 0
-200 0 -200 -50 0 -50 0 0 100 0 100 -50 0 -50 0 0 -100 0 -100 -50 0 -50 0 0
200 0 200 -50 0 -50 0 0 -200z"/>
<path d="M2810 2900 l0 -150 49 0 50 0 3 150 3 150 -52 0 -53 0 0 -150z"/>
<path d="M1423 1623 l0 -113 54 0 53 0 0 108 0 107 -45 -3 c-25 -2 -45 -9 -46
-16 0 -6 -4 -2 -9 9 -5 12 -8 -23 -7 -92z"/>
<path d="M1650 1335 l0 -55 165 0 165 0 0 55 0 55 -165 0 -165 0 0 -55z"/>
<path d="M970 1220 l0 -60 -55 0 -55 0 0 -55 0 -55 55 0 55 0 0 55 0 55 55 0
55 0 0 60 0 60 -55 0 -55 0 0 -60z"/>
<path d="M1708 1163 l-58 -4 0 -55 0 -54 165 1 165 0 0 53 0 53 -82 6 c-46 4
-94 6 -108 5 -14 -1 -51 -3 -82 -5z"/>
<path d="M1980 215 l0 -55 61 0 61 0 -4 -55 -3 -55 53 0 52 0 -1 113 c0 61 -3
107 -5 101 -4 -10 -172 -9 -201 1 -10 3 -13 -11 -13 -50z"/>
</g>
</svg>
